<svg width="128" height="128" xmlns="http://www.w3.org/2000/svg">

 <g>
  <title>background</title>
  <rect fill="none" id="canvas_background" height="402" width="582" y="-1" x="-1"/>
 </g>
 <g>
  <title>Layer 1</title>
  <path fill="#566573" id="svg_3" d="m72.511,90.536c-0.386,1.035 0.14,2.187 1.175,2.573l16.745,6.248c-7.854,5.62 -17.1,8.594 -26.804,8.594c-25.435,0 -46.127,-20.693 -46.127,-46.128c0,-1.104 -0.896,-2 -2,-2s-2,0.896 -2,2c0,27.64 22.487,50.128 50.127,50.128c9.725,0 19.026,-2.75 27.111,-7.966l-3.087,14.551c-0.229,1.08 0.461,2.142 1.541,2.371c0.14,0.03 0.279,0.044 0.417,0.044c0.925,0 1.755,-0.645 1.954,-1.586l4.69,-22.105l-21.17,-7.898c-1.032,-0.385 -2.185,0.139 -2.572,1.174zm-8.136,-74.214c-9.728,0 -19.03,2.749 -27.11,7.963l3.086,-14.548c0.229,-1.081 -0.46,-2.142 -1.541,-2.371c-1.077,-0.229 -2.143,0.461 -2.371,1.542l-4.69,22.104l21.17,7.898c0.23,0.086 0.467,0.127 0.699,0.127c0.811,0 1.573,-0.498 1.874,-1.302c0.386,-1.034 -0.14,-2.187 -1.175,-2.573l-16.747,-6.25c7.85,-5.618 17.097,-8.591 26.806,-8.591c25.434,0 46.125,20.691 46.125,46.125c0,1.104 0.896,2 2,2s2,-0.896 2,-2c-0.001,-27.638 -22.487,-50.124 -50.126,-50.124z"/>
 </g>
</svg>